<svg width="147" height="88" viewBox="0 0 147 88" fill="none" xmlns="http://www.w3.org/2000/svg">
<path d="M20.906 15.4C20.998 15.2467 21.0287 15.1547 20.998 15.124C20.998 15.0627 20.8907 15.032 20.676 15.032C17.18 15.032 14.512 15.17 12.672 15.446C10.8627 15.6913 9.37533 16.2433 8.21 17.102C7.04467 17.93 6.03267 19.2333 5.174 21.012C5.14333 21.0427 5.082 21.058 4.99 21.058C4.714 21.058 4.59133 20.9967 4.622 20.874L6.462 12.87C6.462 12.8393 6.52333 12.824 6.646 12.824C6.95267 12.824 7.07533 12.87 7.014 12.962C6.98333 13.054 6.968 13.1767 6.968 13.33C6.968 13.698 7.13667 13.9433 7.474 14.066C7.842 14.1887 8.56267 14.25 9.636 14.25H26.426C26.5793 14.25 26.6867 14.3267 26.748 14.48C26.84 14.6333 26.84 14.756 26.748 14.848L10.832 41.758C10.7093 41.9113 10.6633 42.0187 10.694 42.08C10.7247 42.1107 10.832 42.126 11.016 42.126H20.308C21.412 42.126 22.4853 41.85 23.528 41.298C24.5707 40.7153 25.46 39.9487 26.196 38.998C26.932 38.0473 27.392 37.0353 27.576 35.962C27.6067 35.87 27.6987 35.824 27.852 35.824C28.0053 35.824 28.082 35.87 28.082 35.962L27.438 42.632C27.438 42.724 27.392 42.8313 27.3 42.954C27.2387 43.046 27.1467 43.092 27.024 43.092C22.4547 43.0307 15.11 43 4.99 43C4.86733 43 4.77533 42.9387 4.714 42.816C4.65267 42.6627 4.668 42.5247 4.76 42.402L20.906 15.4ZM62.8336 42.448C62.9869 42.448 63.0636 42.54 63.0636 42.724C63.0636 42.908 62.9869 43 62.8336 43C62.2202 43 61.2696 42.9693 59.9816 42.908C58.6322 42.8467 57.6662 42.816 57.0836 42.816C56.3169 42.816 55.3816 42.8467 54.2776 42.908C53.2349 42.9693 52.4069 43 51.7936 43C51.6709 43 51.6096 42.908 51.6096 42.724C51.6096 42.54 51.6709 42.448 51.7936 42.448C52.5909 42.448 53.1582 42.3713 53.4956 42.218C53.8636 42.034 54.0476 41.7273 54.0476 41.298C54.0476 40.7767 53.7409 39.9027 53.1276 38.676L49.9996 32.466H38.6836L36.8896 36.468C36.4909 37.3573 36.2916 38.1853 36.2916 38.952C36.2916 40.056 36.6749 40.9147 37.4416 41.528C38.2389 42.1413 39.2969 42.448 40.6156 42.448C40.7689 42.448 40.8456 42.54 40.8456 42.724C40.8456 42.908 40.7689 43 40.6156 43C40.0636 43 39.2662 42.9693 38.2236 42.908C37.0582 42.8467 36.0462 42.816 35.1876 42.816C34.3596 42.816 33.3629 42.8467 32.1976 42.908C31.1549 42.9693 30.3116 43 29.6676 43C29.5449 43 29.4836 42.908 29.4836 42.724C29.4836 42.54 29.5449 42.448 29.6676 42.448C30.5262 42.448 31.2469 42.2793 31.8296 41.942C32.4122 41.574 32.9949 40.9453 33.5776 40.056C34.1602 39.136 34.8502 37.7867 35.6476 36.008L45.6296 14.066C45.6909 13.974 45.8289 13.928 46.0436 13.928C46.2889 13.928 46.4269 13.974 46.4576 14.066L57.9576 36.698C59.0309 38.8753 59.9202 40.378 60.6256 41.206C61.3309 42.034 62.0669 42.448 62.8336 42.448ZM39.2816 31.178H49.3096L44.0196 20.69L39.2816 31.178ZM84.7213 20.782C84.7213 20.8433 84.6293 20.8893 84.4453 20.92C84.292 20.9507 84.2 20.92 84.1693 20.828C83.6786 19.0493 82.8506 17.7307 81.6853 16.872C80.52 16.0133 78.9866 15.584 77.0853 15.584H75.7053C74.7853 15.584 74.1106 15.7833 73.6813 16.182C73.252 16.5807 73.0373 17.194 73.0373 18.022V27.958H76.3493C78.128 27.958 79.4773 27.6513 80.3973 27.038C81.348 26.394 81.8233 25.52 81.8233 24.416C81.8233 24.3547 81.9153 24.324 82.0993 24.324C82.2833 24.324 82.3753 24.3547 82.3753 24.416L82.3293 28.602C82.3293 29.5833 82.3446 30.3193 82.3753 30.81L82.4213 33.248C82.4213 33.34 82.3293 33.386 82.1453 33.386C81.9613 33.386 81.8693 33.34 81.8693 33.248C81.8693 32.0213 81.3786 31.0553 80.3973 30.35C79.4466 29.614 78.082 29.246 76.3033 29.246H73.0373V39.09C73.0373 40.0407 73.16 40.746 73.4053 41.206C73.6506 41.666 74.1106 41.988 74.7853 42.172C75.46 42.356 76.518 42.448 77.9593 42.448C78.0206 42.448 78.0513 42.54 78.0513 42.724C78.0513 42.908 78.0206 43 77.9593 43C76.702 43 75.7206 42.9847 75.0153 42.954L70.3233 42.908L66.8733 42.954C66.26 42.9847 65.4166 43 64.3433 43C64.2513 43 64.2053 42.908 64.2053 42.724C64.2053 42.54 64.2513 42.448 64.3433 42.448C65.4166 42.448 66.1986 42.3713 66.6893 42.218C67.18 42.0647 67.502 41.7733 67.6553 41.344C67.8393 40.884 67.9313 40.194 67.9313 39.274V17.976C67.9313 17.056 67.8546 16.3813 67.7013 15.952C67.548 15.5227 67.2413 15.2313 66.7813 15.078C66.3213 14.894 65.616 14.802 64.6653 14.802C64.5733 14.802 64.5273 14.71 64.5273 14.526C64.5273 14.342 64.5733 14.25 64.6653 14.25H84.1693C84.476 14.25 84.6293 14.388 84.6293 14.664L84.7213 20.782ZM109.629 35.686C109.629 35.6247 109.69 35.594 109.812 35.594C109.905 35.594 109.981 35.6247 110.042 35.686C110.135 35.7167 110.181 35.7473 110.181 35.778C109.874 38.17 109.721 40.3473 109.721 42.31C109.721 42.5553 109.675 42.7393 109.583 42.862C109.491 42.954 109.307 43 109.031 43H88.6985C88.6065 43 88.5605 42.908 88.5605 42.724C88.5605 42.54 88.6065 42.448 88.6985 42.448C89.6798 42.448 90.3852 42.3713 90.8145 42.218C91.2745 42.0647 91.5812 41.7733 91.7345 41.344C91.8878 40.884 91.9645 40.194 91.9645 39.274V17.976C91.9645 17.056 91.8878 16.3813 91.7345 15.952C91.5812 15.5227 91.2745 15.2313 90.8145 15.078C90.3545 14.894 89.6492 14.802 88.6985 14.802C88.6065 14.802 88.5605 14.71 88.5605 14.526C88.5605 14.342 88.6065 14.25 88.6985 14.25H108.203C108.509 14.25 108.663 14.388 108.663 14.664L108.755 20.782C108.755 20.8433 108.663 20.8893 108.479 20.92C108.325 20.9507 108.233 20.92 108.203 20.828C107.712 19.0493 106.884 17.7307 105.719 16.872C104.553 16.0133 103.02 15.584 101.119 15.584H99.7385C98.8185 15.584 98.1438 15.7833 97.7145 16.182C97.2852 16.5807 97.0705 17.194 97.0705 18.022V27.406H100.889C102.667 27.406 104.032 27.0993 104.983 26.486C105.933 25.8727 106.409 25.014 106.409 23.91C106.409 23.818 106.485 23.772 106.639 23.772C106.823 23.772 106.915 23.818 106.915 23.91L106.869 28.05L106.915 30.258C106.976 31.3007 107.007 32.1287 107.007 32.742C107.007 32.8033 106.915 32.834 106.731 32.834C106.547 32.834 106.455 32.8033 106.455 32.742C106.455 31.4847 105.964 30.5033 104.983 29.798C104.032 29.062 102.652 28.694 100.843 28.694H97.0705V39.09C97.0705 39.9793 97.2392 40.6387 97.5765 41.068C97.9138 41.4973 98.4505 41.712 99.1865 41.712H100.705C103.097 41.712 105.013 41.2213 106.455 40.24C107.896 39.2587 108.954 37.7407 109.629 35.686ZM144.761 42.448C144.823 42.448 144.853 42.54 144.853 42.724C144.853 42.908 144.823 43 144.761 43H136.573C135.899 43 134.641 41.7887 132.801 39.366C130.961 36.9127 128.738 33.4933 126.131 29.108C125.886 29.1387 125.533 29.154 125.073 29.154C123.877 29.154 123.034 29.1387 122.543 29.108V39.274C122.543 40.2247 122.62 40.9147 122.773 41.344C122.927 41.7733 123.218 42.0647 123.647 42.218C124.107 42.3713 124.828 42.448 125.809 42.448C125.871 42.448 125.901 42.54 125.901 42.724C125.901 42.908 125.871 43 125.809 43C124.797 43 124 42.9847 123.417 42.954L119.921 42.908L116.563 42.954C115.95 42.9847 115.122 43 114.079 43C113.987 43 113.941 42.908 113.941 42.724C113.941 42.54 113.987 42.448 114.079 42.448C115.061 42.448 115.766 42.3713 116.195 42.218C116.655 42.0647 116.962 41.7733 117.115 41.344C117.299 40.884 117.391 40.194 117.391 39.274V17.976C117.391 17.056 117.315 16.3813 117.161 15.952C117.008 15.5227 116.701 15.2313 116.241 15.078C115.781 14.894 115.076 14.802 114.125 14.802C114.064 14.802 114.033 14.71 114.033 14.526C114.033 14.342 114.064 14.25 114.125 14.25L116.563 14.296C117.974 14.3573 119.093 14.388 119.921 14.388C120.964 14.388 122.053 14.342 123.187 14.25C123.586 14.2193 124.077 14.1887 124.659 14.158C125.273 14.1273 125.947 14.112 126.683 14.112C129.474 14.112 131.636 14.6333 133.169 15.676C134.703 16.688 135.469 18.114 135.469 19.954C135.469 21.6407 135.009 23.174 134.089 24.554C133.169 25.9033 131.943 26.992 130.409 27.82C132.863 31.5 134.917 34.3827 136.573 36.468C138.229 38.5533 139.701 40.0713 140.989 41.022C142.277 41.9727 143.535 42.448 144.761 42.448ZM122.543 27.82C123.279 27.9427 124.169 28.004 125.211 28.004C126.99 28.004 128.263 27.5133 129.029 26.532C129.827 25.52 130.225 23.91 130.225 21.702C130.225 19.1873 129.857 17.4547 129.121 16.504C128.385 15.5533 127.327 15.078 125.947 15.078C124.721 15.078 123.847 15.308 123.325 15.768C122.804 16.228 122.543 16.9947 122.543 18.068V27.82Z" fill="#A6A6A6"/>
<path d="M30.744 75.496C30.828 75.496 30.87 75.58 30.87 75.748C30.87 75.916 30.828 76 30.744 76C29.764 76 28.98 75.986 28.392 75.958L25.158 75.916L21.378 75.958C20.874 75.986 20.188 76 19.32 76C19.236 76 19.194 75.916 19.194 75.748C19.194 75.58 19.236 75.496 19.32 75.496C20.356 75.496 21.112 75.426 21.588 75.286C22.064 75.146 22.386 74.88 22.554 74.488C22.722 74.096 22.806 73.466 22.806 72.598V62.938H9.24V72.598C9.24 73.438 9.324 74.068 9.492 74.488C9.66 74.88 9.982 75.146 10.458 75.286C10.934 75.426 11.69 75.496 12.726 75.496C12.782 75.496 12.81 75.58 12.81 75.748C12.81 75.916 12.782 76 12.726 76C11.746 76 10.962 75.986 10.374 75.958L6.72 75.916L3.57 75.958C3.01 75.986 2.24 76 1.26 76C1.204 76 1.176 75.916 1.176 75.748C1.176 75.58 1.204 75.496 1.26 75.496C2.24 75.496 2.954 75.426 3.402 75.286C3.85 75.146 4.158 74.88 4.326 74.488C4.494 74.068 4.578 73.438 4.578 72.598V53.152C4.578 52.312 4.494 51.696 4.326 51.304C4.158 50.912 3.85 50.646 3.402 50.506C2.982 50.338 2.296 50.254 1.344 50.254C1.26 50.254 1.218 50.17 1.218 50.002C1.218 49.834 1.26 49.75 1.344 49.75L3.612 49.792C4.9 49.848 5.936 49.876 6.72 49.876C7.784 49.876 9.016 49.848 10.416 49.792L12.726 49.75C12.782 49.75 12.81 49.834 12.81 50.002C12.81 50.17 12.782 50.254 12.726 50.254C11.718 50.254 10.976 50.338 10.5 50.506C10.024 50.674 9.688 50.968 9.492 51.388C9.324 51.78 9.24 52.396 9.24 53.236V61.762H22.806V53.236C22.806 52.396 22.722 51.78 22.554 51.388C22.386 50.968 22.064 50.674 21.588 50.506C21.112 50.338 20.356 50.254 19.32 50.254C19.236 50.254 19.194 50.17 19.194 50.002C19.194 49.834 19.236 49.75 19.32 49.75L21.378 49.792C22.778 49.848 24.038 49.876 25.158 49.876C25.914 49.876 26.992 49.848 28.392 49.792L30.744 49.75C30.828 49.75 30.87 49.834 30.87 50.002C30.87 50.17 30.828 50.254 30.744 50.254C29.792 50.254 29.078 50.338 28.602 50.506C28.154 50.646 27.846 50.912 27.678 51.304C27.538 51.696 27.468 52.312 27.468 53.152V72.598C27.468 73.438 27.538 74.068 27.678 74.488C27.846 74.88 28.154 75.146 28.602 75.286C29.05 75.426 29.764 75.496 30.744 75.496ZM56.0562 55.126C56.0562 53.614 55.7062 52.424 55.0062 51.556C54.3342 50.688 53.3822 50.254 52.1502 50.254C52.0942 50.254 52.0662 50.17 52.0662 50.002C52.0662 49.834 52.0942 49.75 52.1502 49.75L54.1662 49.792C55.2302 49.848 56.0842 49.876 56.7282 49.876C57.2602 49.876 58.0302 49.848 59.0382 49.792L60.9702 49.75C61.0262 49.75 61.0542 49.834 61.0542 50.002C61.0542 50.17 61.0262 50.254 60.9702 50.254C59.8782 50.254 59.0242 50.688 58.4082 51.556C57.7922 52.424 57.4842 53.614 57.4842 55.126V66.802C57.4842 68.762 57.0502 70.484 56.1822 71.968C55.3142 73.452 54.0822 74.6 52.4862 75.412C50.9182 76.196 49.0982 76.588 47.0262 76.588C44.9542 76.588 43.1202 76.196 41.5242 75.412C39.9282 74.628 38.6682 73.494 37.7442 72.01C36.8482 70.498 36.4002 68.734 36.4002 66.718V53.152C36.4002 52.312 36.3162 51.696 36.1482 51.304C36.0082 50.912 35.7282 50.646 35.3082 50.506C34.9162 50.338 34.2862 50.254 33.4182 50.254C33.3342 50.254 33.2922 50.17 33.2922 50.002C33.2922 49.834 33.3342 49.75 33.4182 49.75L35.6442 49.792C36.9322 49.848 37.9542 49.876 38.7102 49.876C39.5502 49.876 40.6142 49.848 41.9022 49.792L44.0442 49.75C44.1282 49.75 44.1702 49.834 44.1702 50.002C44.1702 50.17 44.1282 50.254 44.0442 50.254C43.1762 50.254 42.5322 50.338 42.1122 50.506C41.7202 50.674 41.4402 50.968 41.2722 51.388C41.1322 51.78 41.0622 52.396 41.0622 53.236V65.248C41.0622 68.58 41.7202 71.044 43.0362 72.64C44.3522 74.236 46.2142 75.034 48.6222 75.034C50.9462 75.034 52.7662 74.334 54.0822 72.934C55.3982 71.506 56.0562 69.476 56.0562 66.844V55.126ZM89.4935 75.496C89.5775 75.496 89.6195 75.58 89.6195 75.748C89.6195 75.916 89.5775 76 89.4935 76H84.7895C84.3415 76 83.9635 76.014 83.6555 76.042C83.3475 76.07 83.0955 76.084 82.8995 76.084C82.4515 76.084 82.0595 75.986 81.7235 75.79C81.4155 75.566 81.0235 75.174 80.5475 74.614C80.0995 74.054 79.2875 72.976 78.1115 71.38C77.9715 71.184 77.8035 70.974 77.6075 70.75C77.4395 70.498 77.2435 70.218 77.0195 69.91L71.5175 62.518L70.5935 63.442V72.598C70.5935 73.466 70.6635 74.096 70.8035 74.488C70.9435 74.88 71.2095 75.146 71.6015 75.286C72.0215 75.426 72.6795 75.496 73.5755 75.496C73.6875 75.496 73.7435 75.58 73.7435 75.748C73.7435 75.916 73.6875 76 73.5755 76C72.6515 76 71.9235 75.986 71.3915 75.958L68.2415 75.916L65.1335 75.958C64.5735 75.986 63.8175 76 62.8655 76C62.8095 76 62.7815 75.916 62.7815 75.748C62.7815 75.58 62.8095 75.496 62.8655 75.496C63.7615 75.496 64.4195 75.426 64.8395 75.286C65.2595 75.146 65.5395 74.88 65.6795 74.488C65.8475 74.068 65.9315 73.438 65.9315 72.598V53.152C65.9315 52.312 65.8475 51.696 65.6795 51.304C65.5395 50.912 65.2595 50.646 64.8395 50.506C64.4475 50.338 63.8175 50.254 62.9495 50.254C62.8655 50.254 62.8235 50.17 62.8235 50.002C62.8235 49.834 62.8655 49.75 62.9495 49.75L65.1755 49.792C66.4635 49.848 67.4855 49.876 68.2415 49.876C69.0815 49.876 70.1455 49.848 71.4335 49.792L73.5755 49.75C73.6595 49.75 73.7015 49.834 73.7015 50.002C73.7015 50.17 73.6595 50.254 73.5755 50.254C72.7075 50.254 72.0635 50.338 71.6435 50.506C71.2515 50.674 70.9715 50.968 70.8035 51.388C70.6635 51.78 70.5935 52.396 70.5935 53.236V62.14L78.4895 54.076C79.3015 53.264 79.7075 52.522 79.7075 51.85C79.7075 51.346 79.4835 50.954 79.0355 50.674C78.5875 50.394 77.9575 50.254 77.1455 50.254C77.0615 50.254 77.0195 50.17 77.0195 50.002C77.0195 49.834 77.0615 49.75 77.1455 49.75L79.1195 49.792C80.3515 49.848 81.4995 49.876 82.5635 49.876C83.7115 49.876 84.9015 49.848 86.1335 49.792L88.0235 49.75C88.1075 49.75 88.1495 49.834 88.1495 50.002C88.1495 50.17 88.1075 50.254 88.0235 50.254C86.7355 50.254 85.3215 50.632 83.7815 51.388C82.2415 52.116 80.8415 53.096 79.5815 54.328L74.8355 59.158L81.0515 67.558C82.8715 70.162 84.2295 72.01 85.1255 73.102C86.0495 74.166 86.7915 74.838 87.3515 75.118C87.9115 75.37 88.6255 75.496 89.4935 75.496ZM113.109 55.126C113.109 53.614 112.759 52.424 112.059 51.556C111.387 50.688 110.435 50.254 109.203 50.254C109.147 50.254 109.119 50.17 109.119 50.002C109.119 49.834 109.147 49.75 109.203 49.75L111.219 49.792C112.283 49.848 113.137 49.876 113.781 49.876C114.313 49.876 115.083 49.848 116.091 49.792L118.023 49.75C118.079 49.75 118.107 49.834 118.107 50.002C118.107 50.17 118.079 50.254 118.023 50.254C116.931 50.254 116.077 50.688 115.461 51.556C114.845 52.424 114.537 53.614 114.537 55.126V66.802C114.537 68.762 114.103 70.484 113.235 71.968C112.367 73.452 111.135 74.6 109.539 75.412C107.971 76.196 106.151 76.588 104.079 76.588C102.007 76.588 100.173 76.196 98.577 75.412C96.981 74.628 95.721 73.494 94.797 72.01C93.901 70.498 93.453 68.734 93.453 66.718V53.152C93.453 52.312 93.369 51.696 93.201 51.304C93.061 50.912 92.781 50.646 92.361 50.506C91.969 50.338 91.339 50.254 90.471 50.254C90.387 50.254 90.345 50.17 90.345 50.002C90.345 49.834 90.387 49.75 90.471 49.75L92.697 49.792C93.985 49.848 95.007 49.876 95.763 49.876C96.603 49.876 97.667 49.848 98.955 49.792L101.097 49.75C101.181 49.75 101.223 49.834 101.223 50.002C101.223 50.17 101.181 50.254 101.097 50.254C100.229 50.254 99.585 50.338 99.165 50.506C98.773 50.674 98.493 50.968 98.325 51.388C98.185 51.78 98.115 52.396 98.115 53.236V65.248C98.115 68.58 98.773 71.044 100.089 72.64C101.405 74.236 103.267 75.034 105.675 75.034C107.999 75.034 109.819 74.334 111.135 72.934C112.451 71.506 113.109 69.476 113.109 66.844V55.126ZM146.546 75.496C146.63 75.496 146.672 75.58 146.672 75.748C146.672 75.916 146.63 76 146.546 76H141.842C141.394 76 141.016 76.014 140.708 76.042C140.4 76.07 140.148 76.084 139.952 76.084C139.504 76.084 139.112 75.986 138.776 75.79C138.468 75.566 138.076 75.174 137.6 74.614C137.152 74.054 136.34 72.976 135.164 71.38C135.024 71.184 134.856 70.974 134.66 70.75C134.492 70.498 134.296 70.218 134.072 69.91L128.57 62.518L127.646 63.442V72.598C127.646 73.466 127.716 74.096 127.856 74.488C127.996 74.88 128.262 75.146 128.654 75.286C129.074 75.426 129.732 75.496 130.628 75.496C130.74 75.496 130.796 75.58 130.796 75.748C130.796 75.916 130.74 76 130.628 76C129.704 76 128.976 75.986 128.444 75.958L125.294 75.916L122.186 75.958C121.626 75.986 120.87 76 119.918 76C119.862 76 119.834 75.916 119.834 75.748C119.834 75.58 119.862 75.496 119.918 75.496C120.814 75.496 121.472 75.426 121.892 75.286C122.312 75.146 122.592 74.88 122.732 74.488C122.9 74.068 122.984 73.438 122.984 72.598V53.152C122.984 52.312 122.9 51.696 122.732 51.304C122.592 50.912 122.312 50.646 121.892 50.506C121.5 50.338 120.87 50.254 120.002 50.254C119.918 50.254 119.876 50.17 119.876 50.002C119.876 49.834 119.918 49.75 120.002 49.75L122.228 49.792C123.516 49.848 124.538 49.876 125.294 49.876C126.134 49.876 127.198 49.848 128.486 49.792L130.628 49.75C130.712 49.75 130.754 49.834 130.754 50.002C130.754 50.17 130.712 50.254 130.628 50.254C129.76 50.254 129.116 50.338 128.696 50.506C128.304 50.674 128.024 50.968 127.856 51.388C127.716 51.78 127.646 52.396 127.646 53.236V62.14L135.542 54.076C136.354 53.264 136.76 52.522 136.76 51.85C136.76 51.346 136.536 50.954 136.088 50.674C135.64 50.394 135.01 50.254 134.198 50.254C134.114 50.254 134.072 50.17 134.072 50.002C134.072 49.834 134.114 49.75 134.198 49.75L136.172 49.792C137.404 49.848 138.552 49.876 139.616 49.876C140.764 49.876 141.954 49.848 143.186 49.792L145.076 49.75C145.16 49.75 145.202 49.834 145.202 50.002C145.202 50.17 145.16 50.254 145.076 50.254C143.788 50.254 142.374 50.632 140.834 51.388C139.294 52.116 137.894 53.096 136.634 54.328L131.888 59.158L138.104 67.558C139.924 70.162 141.282 72.01 142.178 73.102C143.102 74.166 143.844 74.838 144.404 75.118C144.964 75.37 145.678 75.496 146.546 75.496Z" fill="#A6A6A6"/>
</svg>
