<svg width="332" height="67" viewBox="0 0 332 67" fill="none" xmlns="http://www.w3.org/2000/svg">
<path d="M17.569 1.224C17.569 1.576 17.4623 1.91733 17.249 2.248L4.273 20.472H17.377V23H0.193001V21.784C0.193001 21.6133 0.219668 21.4533 0.273001 21.304C0.337001 21.1547 0.411668 21.0107 0.497001 20.872L13.505 2.6H0.801001V0.0719986H17.569V1.224ZM38.819 14.488L35.219 5.16C35.1123 4.88267 35.0003 4.56267 34.883 4.2C34.7657 3.82667 34.6537 3.432 34.547 3.016C34.323 3.88 34.0937 4.6 33.859 5.176L30.259 14.488H38.819ZM45.283 23H42.883C42.6057 23 42.3817 22.9307 42.211 22.792C42.0403 22.6533 41.9123 22.4773 41.827 22.264L39.683 16.728H29.395L27.251 22.264C27.187 22.456 27.0643 22.6267 26.883 22.776C26.7017 22.9253 26.4777 23 26.211 23H23.811L32.979 0.0719986H36.115L45.283 23ZM56.5232 2.6V10.616H65.9472V13.144H56.5232V23H53.4192V0.0719986H67.5473V2.6H56.5232ZM90.777 20.472L90.761 23H76.633V0.0719986H90.761V2.6H79.737V10.216H88.665V12.648H79.737V20.472H90.777ZM106.574 11.176C107.47 11.176 108.259 11.0693 108.942 10.856C109.635 10.632 110.211 10.3227 110.67 9.928C111.139 9.52267 111.491 9.04267 111.726 8.488C111.96 7.93333 112.078 7.32 112.078 6.648C112.078 5.28267 111.63 4.25333 110.734 3.56C109.838 2.86667 108.494 2.52 106.702 2.52H103.31V11.176H106.574ZM117.166 23H114.414C113.848 23 113.432 22.7813 113.166 22.344L107.214 14.152C107.032 13.896 106.835 13.7147 106.622 13.608C106.419 13.4907 106.099 13.432 105.662 13.432H103.31V23H100.222V0.0719986H106.702C108.152 0.0719986 109.406 0.221332 110.462 0.519999C111.518 0.807999 112.387 1.22933 113.07 1.784C113.763 2.33867 114.275 3.01067 114.606 3.8C114.936 4.57867 115.102 5.45333 115.102 6.424C115.102 7.23467 114.974 7.992 114.718 8.696C114.462 9.4 114.088 10.0347 113.598 10.6C113.118 11.1547 112.526 11.6293 111.822 12.024C111.128 12.4187 110.339 12.7173 109.454 12.92C109.848 13.144 110.19 13.4693 110.478 13.896L117.166 23ZM157.288 0.0719986V23H154.184V12.568H141.816V23H138.712V0.0719986H141.816V10.296H154.184V0.0719986H157.288ZM177.117 20.536C178.067 20.536 178.915 20.376 179.661 20.056C180.408 19.736 181.037 19.288 181.549 18.712C182.072 18.136 182.467 17.448 182.733 16.648C183.011 15.848 183.149 14.968 183.149 14.008V0.0719986H186.237V14.008C186.237 15.3307 186.024 16.5573 185.597 17.688C185.181 18.8187 184.579 19.8 183.789 20.632C183.011 21.4533 182.056 22.0987 180.925 22.568C179.795 23.0373 178.525 23.272 177.117 23.272C175.709 23.272 174.44 23.0373 173.309 22.568C172.179 22.0987 171.219 21.4533 170.429 20.632C169.64 19.8 169.032 18.8187 168.605 17.688C168.189 16.5573 167.981 15.3307 167.981 14.008V0.0719986H171.069V13.992C171.069 14.952 171.203 15.832 171.469 16.632C171.747 17.432 172.141 18.12 172.653 18.696C173.176 19.272 173.811 19.7253 174.557 20.056C175.315 20.376 176.168 20.536 177.117 20.536ZM200.008 10.12H201.176C201.582 10.12 201.907 10.072 202.152 9.976C202.398 9.86933 202.622 9.69333 202.824 9.448L210.456 0.807999C210.67 0.530665 210.894 0.338665 211.128 0.231998C211.363 0.125332 211.651 0.0719986 211.992 0.0719986H214.616L205.88 9.944C205.667 10.2 205.459 10.4133 205.256 10.584C205.064 10.744 204.856 10.8773 204.632 10.984C204.92 11.08 205.182 11.224 205.416 11.416C205.651 11.5973 205.88 11.8373 206.104 12.136L215.224 23H212.536C212.334 23 212.158 22.9893 212.008 22.968C211.87 22.936 211.747 22.8933 211.64 22.84C211.534 22.776 211.438 22.7067 211.352 22.632C211.278 22.5467 211.203 22.4507 211.128 22.344L203.224 13.24C203.011 12.9733 202.782 12.7867 202.536 12.68C202.291 12.5627 201.918 12.504 201.416 12.504H200.008V23H196.92V0.0719986H200.008V10.12ZM232.076 20.536C233.025 20.536 233.873 20.376 234.62 20.056C235.367 19.736 235.996 19.288 236.508 18.712C237.031 18.136 237.425 17.448 237.692 16.648C237.969 15.848 238.108 14.968 238.108 14.008V0.0719986H241.196V14.008C241.196 15.3307 240.983 16.5573 240.556 17.688C240.14 18.8187 239.537 19.8 238.748 20.632C237.969 21.4533 237.015 22.0987 235.884 22.568C234.753 23.0373 233.484 23.272 232.076 23.272C230.668 23.272 229.399 23.0373 228.268 22.568C227.137 22.0987 226.177 21.4533 225.388 20.632C224.599 19.8 223.991 18.8187 223.564 17.688C223.148 16.5573 222.94 15.3307 222.94 14.008V0.0719986H226.028V13.992C226.028 14.952 226.161 15.832 226.428 16.632C226.705 17.432 227.1 18.12 227.612 18.696C228.135 19.272 228.769 19.7253 229.516 20.056C230.273 20.376 231.127 20.536 232.076 20.536ZM254.967 10.12H256.135C256.541 10.12 256.866 10.072 257.111 9.976C257.357 9.86933 257.581 9.69333 257.783 9.448L265.415 0.807999C265.629 0.530665 265.853 0.338665 266.087 0.231998C266.322 0.125332 266.61 0.0719986 266.951 0.0719986H269.575L260.839 9.944C260.626 10.2 260.418 10.4133 260.215 10.584C260.023 10.744 259.815 10.8773 259.591 10.984C259.879 11.08 260.141 11.224 260.375 11.416C260.61 11.5973 260.839 11.8373 261.063 12.136L270.183 23H267.495C267.293 23 267.117 22.9893 266.967 22.968C266.829 22.936 266.706 22.8933 266.599 22.84C266.493 22.776 266.397 22.7067 266.311 22.632C266.237 22.5467 266.162 22.4507 266.087 22.344L258.183 13.24C257.97 12.9733 257.741 12.7867 257.495 12.68C257.25 12.5627 256.877 12.504 256.375 12.504H254.967V23H251.879V0.0719986H254.967V10.12ZM308.978 0.0719986L299.634 23H296.85L287.506 0.0719986H289.986C290.263 0.0719986 290.487 0.141332 290.658 0.279999C290.829 0.418666 290.957 0.594666 291.042 0.807999L297.506 16.984C297.645 17.3467 297.778 17.7413 297.906 18.168C298.045 18.5947 298.167 19.0427 298.274 19.512C298.381 19.0427 298.493 18.5947 298.61 18.168C298.727 17.7413 298.855 17.3467 298.994 16.984L305.442 0.807999C305.506 0.626666 305.629 0.461332 305.81 0.311998C306.002 0.151999 306.231 0.0719986 306.498 0.0719986H308.978ZM331.258 20.472L331.242 23H317.114V0.0719986H331.242V2.6H320.218V10.216H329.146V12.648H320.218V20.472H331.258ZM53.9187 49.544C53.9187 51.2613 53.6467 52.824 53.1027 54.232C52.5587 55.64 51.7907 56.8453 50.7987 57.848C49.8067 58.8507 48.6121 59.6293 47.2147 60.184C45.8281 60.728 44.2921 61 42.6067 61H34.0467V38.072H42.6067C44.2921 38.072 45.8281 38.3493 47.2147 38.904C48.6121 39.448 49.8067 40.2267 50.7987 41.24C51.7907 42.2427 52.5587 43.448 53.1027 44.856C53.6467 46.264 53.9187 47.8267 53.9187 49.544ZM50.7347 49.544C50.7347 48.136 50.5427 46.8773 50.1587 45.768C49.7747 44.6587 49.2307 43.72 48.5267 42.952C47.8227 42.184 46.9694 41.5973 45.9667 41.192C44.9641 40.7867 43.8441 40.584 42.6067 40.584H37.1507V58.488H42.6067C43.8441 58.488 44.9641 58.2853 45.9667 57.88C46.9694 57.4747 47.8227 56.8933 48.5267 56.136C49.2307 55.368 49.7747 54.4293 50.1587 53.32C50.5427 52.2107 50.7347 50.952 50.7347 49.544ZM75.0615 52.488L71.4615 43.16C71.3548 42.8827 71.2428 42.5627 71.1255 42.2C71.0082 41.8267 70.8962 41.432 70.7895 41.016C70.5655 41.88 70.3362 42.6 70.1015 43.176L66.5015 52.488H75.0615ZM81.5255 61H79.1255C78.8482 61 78.6242 60.9307 78.4535 60.792C78.2828 60.6533 78.1548 60.4773 78.0695 60.264L75.9255 54.728H65.6375L63.4935 60.264C63.4295 60.456 63.3068 60.6267 63.1255 60.776C62.9442 60.9253 62.7202 61 62.4535 61H60.0535L69.2215 38.072H72.3575L81.5255 61ZM108.238 38.072V61H106.686C106.44 61 106.232 60.9573 106.062 60.872C105.902 60.7867 105.742 60.6427 105.582 60.44L92.3177 43.16C92.3391 43.4267 92.3551 43.688 92.3657 43.944C92.3764 44.2 92.3817 44.44 92.3817 44.664V61H89.6617V38.072H91.2617C91.4004 38.072 91.5177 38.0827 91.6137 38.104C91.7097 38.1147 91.7951 38.1413 91.8697 38.184C91.9444 38.216 92.0191 38.2693 92.0937 38.344C92.1684 38.408 92.2484 38.4933 92.3337 38.6L105.598 55.864C105.576 55.5867 105.555 55.32 105.534 55.064C105.523 54.7973 105.518 54.5467 105.518 54.312V38.072H108.238ZM122.323 61H119.219V38.072H122.323V61ZM145.036 41.656C144.94 41.816 144.833 41.9387 144.716 42.024C144.609 42.0987 144.476 42.136 144.316 42.136C144.135 42.136 143.921 42.0453 143.676 41.864C143.431 41.6827 143.121 41.4853 142.748 41.272C142.385 41.048 141.943 40.8453 141.42 40.664C140.908 40.4827 140.284 40.392 139.548 40.392C138.855 40.392 138.241 40.488 137.708 40.68C137.185 40.8613 136.743 41.112 136.38 41.432C136.028 41.752 135.761 42.1307 135.58 42.568C135.399 42.9947 135.308 43.4587 135.308 43.96C135.308 44.6 135.463 45.1333 135.772 45.56C136.092 45.976 136.508 46.3333 137.02 46.632C137.543 46.9307 138.129 47.192 138.78 47.416C139.441 47.6293 140.113 47.8533 140.796 48.088C141.489 48.3227 142.161 48.5893 142.812 48.888C143.473 49.176 144.06 49.544 144.572 49.992C145.095 50.44 145.511 50.9893 145.82 51.64C146.14 52.2907 146.3 53.0907 146.3 54.04C146.3 54.9467 146.156 55.8053 145.868 56.616C145.591 57.416 145.185 58.1307 144.652 58.76C144.119 59.3893 143.457 59.912 142.668 60.328C141.889 60.744 140.999 61.0213 139.996 61.16L139.708 62.2C140.7 62.4027 141.415 62.6907 141.852 63.064C142.289 63.4373 142.508 63.912 142.508 64.488C142.508 64.8293 142.423 65.1387 142.252 65.416C142.081 65.6933 141.841 65.928 141.532 66.12C141.233 66.312 140.871 66.456 140.444 66.552C140.017 66.6587 139.548 66.712 139.036 66.712C138.599 66.712 138.183 66.664 137.788 66.568C137.393 66.4827 137.031 66.3653 136.7 66.216L136.972 65.336C137.036 65.144 137.159 65.048 137.34 65.048C137.404 65.048 137.479 65.064 137.564 65.096C137.649 65.1387 137.751 65.1813 137.868 65.224C137.996 65.2773 138.14 65.32 138.3 65.352C138.471 65.3947 138.668 65.416 138.892 65.416C139.34 65.416 139.676 65.3253 139.9 65.144C140.135 64.9627 140.252 64.7333 140.252 64.456C140.252 64.0507 140.028 63.7627 139.58 63.592C139.132 63.432 138.497 63.2987 137.676 63.192L138.316 61.256C136.887 61.2133 135.591 60.9253 134.428 60.392C133.265 59.8587 132.268 59.1493 131.436 58.264L132.332 56.792C132.417 56.6747 132.519 56.5787 132.636 56.504C132.764 56.4187 132.903 56.376 133.052 56.376C133.191 56.376 133.345 56.4347 133.516 56.552C133.697 56.6587 133.9 56.7973 134.124 56.968C134.348 57.1387 134.604 57.3253 134.892 57.528C135.18 57.7307 135.505 57.9173 135.868 58.088C136.241 58.2587 136.663 58.4027 137.132 58.52C137.601 58.6267 138.129 58.68 138.716 58.68C139.452 58.68 140.108 58.5787 140.684 58.376C141.26 58.1733 141.745 57.8907 142.14 57.528C142.545 57.1547 142.855 56.712 143.068 56.2C143.281 55.688 143.388 55.1173 143.388 54.488C143.388 53.7947 143.228 53.2293 142.908 52.792C142.599 52.344 142.188 51.9707 141.676 51.672C141.164 51.3733 140.577 51.1227 139.916 50.92C139.255 50.7067 138.583 50.4933 137.9 50.28C137.217 50.056 136.545 49.8 135.884 49.512C135.223 49.224 134.636 48.8507 134.124 48.392C133.612 47.9333 133.196 47.3627 132.876 46.68C132.567 45.9867 132.412 45.1333 132.412 44.12C132.412 43.3093 132.567 42.5253 132.876 41.768C133.196 41.0107 133.655 40.3387 134.252 39.752C134.86 39.1653 135.601 38.696 136.476 38.344C137.361 37.992 138.375 37.816 139.516 37.816C140.796 37.816 141.959 38.0187 143.004 38.424C144.06 38.8293 144.988 39.416 145.788 40.184L145.036 41.656ZM179.659 38.072V61H176.939V44.152C176.939 43.928 176.944 43.688 176.955 43.432C176.976 43.176 176.998 42.9147 177.019 42.648L169.147 56.984C168.902 57.464 168.528 57.704 168.027 57.704H167.579C167.078 57.704 166.704 57.464 166.459 56.984L158.427 42.584C158.491 43.1493 158.523 43.672 158.523 44.152V61H155.803V38.072H158.091C158.368 38.072 158.582 38.0987 158.731 38.152C158.88 38.2053 159.024 38.3547 159.163 38.6L167.083 52.712C167.211 52.968 167.334 53.2347 167.451 53.512C167.579 53.7893 167.696 54.072 167.803 54.36C167.91 54.072 168.022 53.7893 168.139 53.512C168.256 53.224 168.384 52.952 168.523 52.696L176.299 38.6C176.427 38.3547 176.566 38.2053 176.715 38.152C176.875 38.0987 177.094 38.072 177.371 38.072H179.659ZM202.818 52.488L199.218 43.16C199.111 42.8827 198.999 42.5627 198.882 42.2C198.764 41.8267 198.652 41.432 198.546 41.016C198.322 41.88 198.092 42.6 197.858 43.176L194.258 52.488H202.818ZM209.282 61H206.882C206.604 61 206.38 60.9307 206.21 60.792C206.039 60.6533 205.911 60.4773 205.826 60.264L203.682 54.728H193.394L191.25 60.264C191.186 60.456 191.063 60.6267 190.882 60.776C190.7 60.9253 190.476 61 190.21 61H187.81L196.978 38.072H200.114L209.282 61ZM235.994 38.072V61H234.442C234.197 61 233.989 60.9573 233.818 60.872C233.658 60.7867 233.498 60.6427 233.338 60.44L220.074 43.16C220.095 43.4267 220.111 43.688 220.122 43.944C220.133 44.2 220.138 44.44 220.138 44.664V61H217.418V38.072H219.018C219.157 38.072 219.274 38.0827 219.37 38.104C219.466 38.1147 219.551 38.1413 219.626 38.184C219.701 38.216 219.775 38.2693 219.85 38.344C219.925 38.408 220.005 38.4933 220.09 38.6L233.354 55.864C233.333 55.5867 233.311 55.32 233.29 55.064C233.279 54.7973 233.274 54.5467 233.274 54.312V38.072H235.994ZM259.983 58.392V61H246.975V38.072H250.063V58.392H259.983ZM271.637 61H268.533V38.072H271.637V61ZM285.71 48.12H286.878C287.283 48.12 287.608 48.072 287.854 47.976C288.099 47.8693 288.323 47.6933 288.526 47.448L296.158 38.808C296.371 38.5307 296.595 38.3387 296.83 38.232C297.064 38.1253 297.352 38.072 297.694 38.072H300.318L291.582 47.944C291.368 48.2 291.16 48.4133 290.958 48.584C290.766 48.744 290.558 48.8773 290.334 48.984C290.622 49.08 290.883 49.224 291.118 49.416C291.352 49.5973 291.582 49.8373 291.806 50.136L300.926 61H298.238C298.035 61 297.859 60.9893 297.71 60.968C297.571 60.936 297.448 60.8933 297.342 60.84C297.235 60.776 297.139 60.7067 297.054 60.632C296.979 60.5467 296.904 60.4507 296.83 60.344L288.926 51.24C288.712 50.9733 288.483 50.7867 288.238 50.68C287.992 50.5627 287.619 50.504 287.118 50.504H285.71V61H282.622V38.072H285.71V48.12Z" fill="#D1D1D1"/>
</svg>
